# xmcd CD database file
#
# Track frame offsets:
#	150
#	17471
#	35029
#	51837
#	69856
#	89802
#	104798
#	119234
#	139155
#	155680
#
# Disc length: 2325 seconds
#
# Revision: 0
# Processed by: cddbd v1.5.2PL0 Copyright (c) Steve Scherf et al.
# Submitted via: CDex 1.70beta2
#
DISCID=9509130a
DTITLE=Cody Johnson - Six Strings One Dream
DYEAR=2009
DGENRE=Country
TTITLE0=Another Try
TTITLE1=Pretend
TTITLE2=I'm Not Responsible
TTITLE3=No Tears In My Eyes
TTITLE4=Pray For Rain
TTITLE5=Finally Free
TTITLE6=Nobody To Blame
TTITLE7=Seeing The Light
TTITLE8=Slam The Door
TTITLE9=Texas Kind Of Way
EXTD=YEAR: 2009
EXTT0=
EXTT1=
EXTT2=
EXTT3=
EXTT4=
EXTT5=
EXTT6=
EXTT7=
EXTT8=
EXTT9=
PLAYORDER=
